<svg xmlns="http://www.w3.org/2000/svg" width="11" height="13" viewBox="0 0 11 13">
  <path id="bug" d="M45.671.013a.03.03,0,0,1,.041-.007l.917.646a.03.03,0,0,1,.007.042L45.36,2.528a7.786,7.786,0,0,1,1.043.415,3.647,3.647,0,0,1-2.785,1.789,4.285,4.285,0,0,1-3-1.667,6.27,6.27,0,0,1,1.1-.527L40.317.858a.03.03,0,0,1,0-.042l.857-.724a.03.03,0,0,1,.042,0l1.772,2.126a4.088,4.088,0,0,1,.462-.027,5.063,5.063,0,0,1,.667.046Zm.347,4.8A8.753,8.753,0,0,0,47.193,3.6,5.864,5.864,0,0,1,49,8.1c0,3.057-3.124,4.9-3.124,4.9a7.656,7.656,0,0,1-1.859-3.442A8.152,8.152,0,0,1,44.559,5.5a7.531,7.531,0,0,0,1.459-.681Zm-5.036,0A8.752,8.752,0,0,1,39.807,3.6,5.864,5.864,0,0,0,38,8.1c0,3.057,3.124,4.9,3.124,4.9a7.656,7.656,0,0,0,1.859-3.442A8.152,8.152,0,0,0,42.441,5.5a7.531,7.531,0,0,1-1.459-.681Z" transform="translate(-38)" fill="#fff" fill-rule="evenodd"/>
</svg>
