<svg xmlns="http://www.w3.org/2000/svg" width="13" height="13" viewBox="0 0 13 13">
  <g id="CategorySymbols_Special" transform="translate(-117 -70)">
    <path id="Union_3" data-name="Union 3" d="M219-451.5a6.5,6.5,0,0,1,6.5-6.5,6.5,6.5,0,0,1,6.5,6.5,6.5,6.5,0,0,1-6.5,6.5A6.5,6.5,0,0,1,219-451.5Zm1.3,0a5.2,5.2,0,0,0,5.2,5.2,5.2,5.2,0,0,0,5.2-5.2,5.2,5.2,0,0,0-5.2-5.2A5.2,5.2,0,0,0,220.3-451.5Zm1.17-.065a4.1,4.1,0,0,1,4.1-4.1,4.1,4.1,0,0,1,4.1,4.1,4.1,4.1,0,0,1-4.1,4.1A4.1,4.1,0,0,1,221.47-451.565Zm1.3,0a2.8,2.8,0,0,0,2.795,2.8,2.8,2.8,0,0,0,2.8-2.8,2.8,2.8,0,0,0-2.8-2.8A2.8,2.8,0,0,0,222.77-451.565Zm.91,0a1.885,1.885,0,0,1,1.885-1.885,1.885,1.885,0,0,1,1.885,1.885,1.885,1.885,0,0,1-1.885,1.885A1.885,1.885,0,0,1,223.68-451.565Z" transform="translate(-102 528)" fill="#fff"/>
  </g>
</svg>
