<svg xmlns="http://www.w3.org/2000/svg" width="11" height="13" viewBox="0 0 11 13">
  <path id="dragon" d="M38.11,6.472a.691.691,0,0,0,.216-.291,2.153,2.153,0,0,1-.819,4.133,2.1,2.1,0,0,1-1.283-.435c-.117-.057-.213-.112-.292-.157-.122-.07-.2-.116-.252-.108-.147.021-.1.16-.065.287.026.086.051.166.013.2s-.168-.092-.318-.24c-.2-.2-.449-.442-.564-.37-.091.057,0,.212.106.4l.008.014c.046.08.1.162.147.237.1.152.178.274.138.294a1.7,1.7,0,0,1-.663-.531c-.109-.125-.214-.26-.311-.386h0c-.214-.275-.392-.5-.492-.477-.12.033-.029.289.1.536.063.115.136.233.2.335h0c.1.158.174.278.147.293a1.942,1.942,0,0,1-.581-.718,7.785,7.785,0,0,1-.329-.733A1.282,1.282,0,0,0,33,8.325c-.164-.062-.164.284-.1.783.009.065.021.133.037.2a5.149,5.149,0,1,0,5.326-6.683,2.476,2.476,0,0,1,.068-.384A12.665,12.665,0,0,0,38.828.825c0-.017,0-.035.006-.054C38.863.5,38.917,0,38.5,0c-.223,0-.327.172-.445.368h0A2.362,2.362,0,0,1,37.9.6,14.155,14.155,0,0,1,36.4,2.155c-.835.752-1.655,1.37-2.132,1.731h0c-.217.164-.364.275-.409.32a26.328,26.328,0,0,0-1.569,2.632s-.4.734-.256.883.481.115.481.115,4.568-1.083,4.977-1.169c.11-.023.188-.036.248-.046A.738.738,0,0,0,38.11,6.472ZM34.88,5.08a8.3,8.3,0,0,0-.652.816A1.742,1.742,0,0,0,35.4,5.535a1.443,1.443,0,0,0,.321-1.106A8.784,8.784,0,0,0,34.88,5.08Z" transform="translate(-32)" fill="#fff" fill-rule="evenodd"/>
</svg>
