<svg xmlns="http://www.w3.org/2000/svg" width="13" height="13" viewBox="0 0 13 13">
  <path id="fairy" d="M2.608,10.308l2.085-.6L6.495,13a.006.006,0,0,0,.011,0L8.306,9.7l2.085.6A.006.006,0,0,0,10.4,10.3l-.6-2.044L13,6.505a.006.006,0,0,0,0-.011L9.768,4.729,10.4,2.6a.006.006,0,0,0-.008-.008l-2.134.619L6.505,0a.006.006,0,0,0-.011,0l-1.752,3.2L2.608,2.588A.006.006,0,0,0,2.6,2.6l.631,2.133L0,6.495a.006.006,0,0,0,0,.011l3.2,1.751L2.6,10.3A.006.006,0,0,0,2.608,10.308ZM4.226,6.522,5.7,7.33l.808,1.477a.006.006,0,0,0,.011,0L7.33,7.33l1.477-.808a.006.006,0,0,0,0-.011L7.33,5.7,6.522,4.226a.006.006,0,0,0-.011,0L5.7,5.7l-1.477.808A.006.006,0,0,0,4.226,6.522Z" fill="#fff" fill-rule="evenodd"/>
</svg>
