<svg xmlns="http://www.w3.org/2000/svg" width="12" height="13" viewBox="0 0 12 13">
  <path id="fighting" d="M18.789,1.081A1.413,1.413,0,0,1,21.351.65h.415a1.411,1.411,0,0,1,2.319.433h.347a1.4,1.4,0,0,1,.75-.217,1.418,1.418,0,0,1,1.3.867h.944a.043.043,0,0,1,.022.006q.065-.006.131-.006A1.426,1.426,0,0,1,29,3.167V7.545q0,.039,0,.078A5.793,5.793,0,0,1,23,13a5.777,5.777,0,0,1-6-5.525,5.283,5.283,0,0,1,1.646-3.8,13.424,13.424,0,0,0,.132,2.895C19.074,6.5,18.843,2.053,18.789,1.081Z" transform="translate(-17)" fill="#fff" fill-rule="evenodd"/>
</svg>
