<svg xmlns="http://www.w3.org/2000/svg" width="10" height="13" viewBox="0 0 10 13">
  <path id="fire" d="M71.513,10.039a4.8,4.8,0,0,0-.155-1.795,3.715,3.715,0,0,1-.595,1.347,1.936,1.936,0,0,1-1.232.582,1.285,1.285,0,0,0,.75-1.156,1.347,1.347,0,0,0-2.691,0,1.238,1.238,0,0,0,.125.544,1.55,1.55,0,0,1-.538-.939s-.519,2.1.911,3.086,4.231.139,4.231.139-4.009,2.748-6.98-.243c-2.559-2.576-.668-5.968-.668-5.968a3.033,3.033,0,0,0-.082.68,1.2,1.2,0,0,0,.2.643,9.734,9.734,0,0,1,1.078-1.751A9.089,9.089,0,0,1,67.363,4a5.832,5.832,0,0,0,.895-.7C69.333,2.135,68.674,0,68.674,0a5.4,5.4,0,0,1,1.551,2.387A4.335,4.335,0,0,1,70.2,4c-.121.847-.218,1.531.653,1.487,1.407-.072.184-2.185.184-2.185S74.226,4.941,73.987,7.8,70.5,11.306,70.5,11.306A3.487,3.487,0,0,0,71.513,10.039Z" transform="translate(-64)" fill="#fff" fill-rule="evenodd"/>
</svg>
