<svg xmlns="http://www.w3.org/2000/svg" width="32" height="32" viewBox="0 0 32 32">
  <path id="pokeball" d="M-543.984-30.659h10.878a5.285,5.285,0,0,0,5.221,4.329,5.285,5.285,0,0,0,5.222-4.329h10.647A15.937,15.937,0,0,1-528-15.835,15.938,15.938,0,0,1-543.984-30.659Zm12.685-.957a3.53,3.53,0,0,1,3.531-3.531,3.531,3.531,0,0,1,3.532,3.531,3.532,3.532,0,0,1-3.532,3.532A3.531,3.531,0,0,1-531.3-31.616Zm8.636-1.191a5.285,5.285,0,0,0-5.222-4.328,5.285,5.285,0,0,0-5.221,4.328H-544a15.939,15.939,0,0,1,16-15.027,15.939,15.939,0,0,1,16,15.027Z" transform="translate(544 47.834)" fill="#414646"/>
</svg>
