<svg xmlns="http://www.w3.org/2000/svg" width="12" height="13" viewBox="0 0 12 13">
  <path id="psychic" d="M29.053,10.8s-1.63,1.315-4.872.771c-2.46-.413-3.772-3.141-3.772-4.608,0-3.477,2.558-4.268,4.287-4.268A3.061,3.061,0,0,1,27.554,5.7a2.357,2.357,0,0,1-2.36,2.462,1.747,1.747,0,0,1-1.862-1.948,1.271,1.271,0,0,1,1.435-1.262c.684,0,.919.588.919,1.093a.663.663,0,0,1-.715.686c-.325,0-.357-.165-.481-.338s.159-.829-.307-.829-.553.754-.553.754A1.587,1.587,0,0,0,25.194,7.75a1.807,1.807,0,0,0,1.865-2.185,2.569,2.569,0,0,0-3.048-1.986c-1.819.231-2.562,2.08-2.235,4.056s2.681,3.121,4.531,2.709S30,8.585,30,5.168,27.059-.3,23.551.036s-5.684,3.423-5.545,7.13S21.642,12.891,24.6,13a6.968,6.968,0,0,0,4.768-1.618s.408-.366.248-.651S29.053,10.8,29.053,10.8Z" transform="translate(-18)" fill="#fff" fill-rule="evenodd"/>
</svg>
