<svg xmlns="http://www.w3.org/2000/svg" width="14" height="13" viewBox="0 0 14 13">
  <path id="flying" d="M4.887,47a4.89,4.89,0,0,0,4.532-2.952c.009-.021-2.91.813-2.817.518.042-.132,1.831-.832,3.135-1.649a3.166,3.166,0,0,0,1.094-1.463,13.416,13.416,0,0,1-1.9.823,7.261,7.261,0,0,1-2.418.265A19.607,19.607,0,0,0,11,40.377a3.989,3.989,0,0,0,1.563-2.184A14.36,14.36,0,0,1,10.4,39.339a11.586,11.586,0,0,1-3.7.787c0-.2,1.556-.654,3.2-1.51a17.908,17.908,0,0,0,2.461-1.674A4.786,4.786,0,0,0,14,34a21.82,21.82,0,0,1-2.067,1.278,21.9,21.9,0,0,1-7.047,2.154A5.072,5.072,0,0,0,0,42.276,4.807,4.807,0,0,0,4.887,47Z" transform="translate(0 -34)" fill="#fff" fill-rule="evenodd"/>
</svg>
