<svg xmlns="http://www.w3.org/2000/svg" width="13" height="13" viewBox="0 0 13 13">
  <path id="ghost" d="M9.368,12.955a23.737,23.737,0,0,1-2.971,0C2.838,12.487,0,9.885,0,6.368A6.435,6.435,0,0,1,6.5,0,6.435,6.435,0,0,1,13,6.368a6.273,6.273,0,0,1-1.664,4.255c-.281.306.1.521.5.739s.774.431.547.742A5.452,5.452,0,0,1,9.368,12.955ZM5.586,5.572a1.016,1.016,0,0,1-2.031,0,.991.991,0,0,1,.508-.862.9.9,0,0,0,.895.862h.628ZM8.734,4.71a.9.9,0,0,1-.895.862H7.211a1.016,1.016,0,0,0,2.031,0A.991.991,0,0,0,8.734,4.71Z" fill="#fff" fill-rule="evenodd"/>
</svg>
