<svg xmlns="http://www.w3.org/2000/svg" width="13" height="13" viewBox="0 0 13 13">
  <path id="poison" d="M10.863,9.99A5.45,5.45,0,0,0,13,5.737C13,2.569,10.09,0,6.5,0S0,2.569,0,5.737A5.423,5.423,0,0,0,2,9.874a2.99,2.99,0,0,0-.116.831c0,1.267.766,2.295,1.711,2.295a1.677,1.677,0,0,0,1.454-1.085A1.677,1.677,0,0,0,6.5,13a1.616,1.616,0,0,0,1.368-.918A1.616,1.616,0,0,0,9.237,13c.945,0,1.711-1.027,1.711-2.295A3.018,3.018,0,0,0,10.863,9.99Zm-.6-4.139c0,1.609-1.723,2.913-3.849,2.913s-3.849-1.3-3.849-2.913S4.289,2.938,6.414,2.938,10.263,4.242,10.263,5.851Z" fill="#fff" fill-rule="evenodd"/>
</svg>
