<svg xmlns="http://www.w3.org/2000/svg" xmlns:xlink="http://www.w3.org/1999/xlink" width="49.968" height="44" viewBox="0 0 49.968 44">
  <defs>
    <filter id="Ellipse_1" x="12.684" y="6.687" width="25.062" height="25.062" filterUnits="userSpaceOnUse">
      <feOffset dy="3" input="SourceAlpha"/>
      <feGaussianBlur stdDeviation="3" result="blur"/>
      <feFlood flood-opacity="0.161"/>
      <feComposite operator="in" in2="blur"/>
      <feComposite in="SourceGraphic"/>
    </filter>
    <filter id="Path_32" x="0" y="11.175" width="49.968" height="32.825" filterUnits="userSpaceOnUse">
      <feOffset dy="3" input="SourceAlpha"/>
      <feGaussianBlur stdDeviation="3" result="blur-2"/>
      <feFlood flood-opacity="0.161"/>
      <feComposite operator="in" in2="blur-2"/>
      <feComposite in="SourceGraphic"/>
    </filter>
  </defs>
  <g id="Pokeball-01" transform="translate(-21.106 -30.036)">
    <g transform="matrix(1, 0, 0, 1, 21.11, 30.04)" filter="url(#Ellipse_1)">
      <circle id="Ellipse_1-2" data-name="Ellipse 1" cx="3.531" cy="3.531" r="3.531" transform="translate(21.68 12.69)" fill="#414646"/>
    </g>
    <path id="Path_31" data-name="Path 31" d="M46.205,40.735a5.285,5.285,0,0,1,5.221,4.329H62.09a16.031,16.031,0,0,0-32,0H40.984A5.285,5.285,0,0,1,46.205,40.735Z" transform="translate(0 0)" fill="#414646"/>
    <g transform="matrix(1, 0, 0, 1, 21.11, 30.04)" filter="url(#Path_32)">
      <path id="Path_32-2" data-name="Path 32" d="M46.259,108.328A5.285,5.285,0,0,1,41.038,104H30.16a16.029,16.029,0,0,0,31.968,0H51.481A5.285,5.285,0,0,1,46.259,108.328Z" transform="translate(-21.16 -86.82)" fill="#414646"/>
    </g>
  </g>
</svg>
