<svg xmlns="http://www.w3.org/2000/svg" width="16" height="13" viewBox="0 0 16 13">
  <path id="rock" d="M11.354,60.152a.006.006,0,0,1,0,0L12.371,54a.006.006,0,0,1,.006,0H12.7a.006.006,0,0,1,.005,0L15,61.518a.006.006,0,0,1,0,.006l-1.692,1.366a.006.006,0,0,1-.008,0ZM-1,64.223a.006.006,0,0,0,0,.006l3.488,1.179H2.5l7.8-5.566a.006.006,0,0,0,0,0l.836-5.8a.006.006,0,0,0-.006-.007H4.221l0,0L-1,60.537a.006.006,0,0,0,0,0Zm4.945,1.485L7.756,67h.005L12.3,63.634a.006.006,0,0,0,0-.008l-1.7-2.617a.006.006,0,0,0-.008,0Z" transform="translate(1 -54)" fill="#fff" fill-rule="evenodd"/>
</svg>
