<svg xmlns="http://www.w3.org/2000/svg" width="13" height="13" viewBox="0 0 13 13">
  <g id="sword-01" transform="translate(45 30)">
    <path id="Union_5" data-name="Union 5" d="M91.713-544.343a1.079,1.079,0,0,1-.778-.881.289.289,0,0,0-.021-.072l0-.887a.741.741,0,0,1,.4-.495.635.635,0,0,1,.735.092c.4.38.8.766,1.174,1.174a.67.67,0,0,1,.132.658.673.673,0,0,1-.506.443,2.469,2.469,0,0,1-.5.05A2.466,2.466,0,0,1,91.713-544.343Zm.958-2.737,1.04-1.039,1.056,1.049-1.041,1.038Zm3.743.535c-.084-.077-.163-.16-.244-.24L93.243-549.7a.4.4,0,0,1,.041-.687.764.764,0,0,1,.215-.132c.161-.056.328-.1.494-.143a1.324,1.324,0,0,1,.823.381c.7.7,1.41,1.4,2.109,2.105a1.13,1.13,0,0,1,.058,1.6.375.375,0,0,1-.276.151h-.026A.376.376,0,0,1,96.414-546.545Zm.289-2.972c.019-.019.052-.056.086-.09q1.669-1.667,3.34-3.332a.442.442,0,0,0,.165-.329.378.378,0,0,0-.205-.332.38.38,0,0,0-.391.026,1.1,1.1,0,0,0-.126.119l-3.3,3.3a.922.922,0,0,0-.083.107l-1.174-1.171.449-.541q1.985-2.382,3.968-4.764a.545.545,0,0,1,.364-.2q1.79-.248,3.579-.508a.168.168,0,0,0,.045-.02h.2c.275.143.328.238.282.557q-.255,1.8-.513,3.609a.478.478,0,0,1-.183.307q-2.195,1.815-4.385,3.634l-.928.769-.03.019Z" transform="translate(-135.911 527.26)" fill="#fff"/>
  </g>
</svg>
