<svg xmlns="http://www.w3.org/2000/svg" width="13" height="13" viewBox="0 0 13 13">
  <path id="Union_2" data-name="Union 2" d="M-206-1336.5a6.5,6.5,0,0,1,6.5-6.5,6.5,6.5,0,0,1,6.5,6.5,6.5,6.5,0,0,1-6.5,6.5A6.5,6.5,0,0,1-206-1336.5Zm.65,0a5.852,5.852,0,0,0,3.844,5.5,3.206,3.206,0,0,1-1.065-1.6,3.122,3.122,0,0,1,0-1.688,3.062,3.062,0,0,1,.524-1.039,3.15,3.15,0,0,1,1.18-.909,2.312,2.312,0,0,1,.918-.259h.393a2.846,2.846,0,0,0,1.311-.26,2.745,2.745,0,0,0,1.18-1.039,2.939,2.939,0,0,0,.393-1.3,3.056,3.056,0,0,0-.131-1.428,2.5,2.5,0,0,0-.525-.909l-.393-.39-.262-.26-.093-.092a5.865,5.865,0,0,0-1.425-.175A5.857,5.857,0,0,0-205.35-1336.5Z" transform="translate(206 1343)" fill="#fff"/>
</svg>
